<svg width="30" height="30" viewBox="0 0 30 30" fill="none" xmlns="http://www.w3.org/2000/svg">
<path d="M3 14H26L27 15H3V14Z" fill="#FFD7DC"/>
<path d="M19.6185 2.81461L27.2409 15.5186C27.4242 15.8241 27.5421 16.0218 27.614 16.1732C27.6635 16.2775 27.6722 16.3228 27.6737 16.3333C27.6659 16.3795 27.6421 16.4215 27.6065 16.452C27.5968 16.456 27.5534 16.4719 27.4385 16.4831C27.2717 16.4994 27.0415 16.5 26.6852 16.5H2.99443C2.64309 16.5 2.41654 16.4994 2.25232 16.4834C2.13925 16.4724 2.09658 16.4567 2.08701 16.4527C2.05134 16.4226 2.02734 16.3809 2.01919 16.3349C2.02054 16.3246 2.02847 16.2799 2.07572 16.1766C2.14434 16.0265 2.25763 15.8303 2.4341 15.5265L9.81327 2.82253C9.95724 2.57467 9.97492 2.55731 9.98532 2.54837C10.0044 2.53197 10.0264 2.51932 10.0501 2.51107C10.0631 2.50657 10.087 2.5 10.3736 2.5H19.0628C19.3449 2.5 19.3684 2.50638 19.3812 2.51077C19.4047 2.5188 19.4265 2.53113 19.4454 2.54712C19.4558 2.55586 19.4733 2.5727 19.6185 2.81461Z" fill="#CE4E64" stroke="#CE4E64"/>
<path fill-rule="evenodd" clip-rule="evenodd" d="M17 18H13V22.4H10.5C10.2239 22.4 10 22.6239 10 22.9V23.8V24.6V25.5C10 25.7761 10.2239 26 10.5 26H19.5C19.7761 26 20 25.7761 20 25.5V24.6V23.8V22.9C20 22.6239 19.7761 22.4 19.5 22.4H17V18Z" fill="#CE4E64"/>
<path d="M22 18V18.9805V19.961" stroke="#CE4E64" stroke-width="1.25" stroke-miterlimit="10" stroke-linecap="round"/>
<path d="M22.7095 20.8537C22.7095 21.0575 22.468 21.3381 22.0095 21.3381C21.5509 21.3381 21.3095 21.0575 21.3095 20.8537C21.3095 20.65 21.5509 20.3693 22.0095 20.3693C22.468 20.3693 22.7095 20.65 22.7095 20.8537Z" stroke="#CE4E64" stroke-width="0.6"/>
<path d="M6 13H7" stroke="#FFD7DC" stroke-miterlimit="10" stroke-linecap="round"/>
<path d="M9 13H10" stroke="#FFD7DC" stroke-miterlimit="10" stroke-linecap="round"/>
<path d="M12 13H13" stroke="#FFD7DC" stroke-miterlimit="10" stroke-linecap="round"/>
<path d="M15 13H16.5" stroke="#FFD7DC" stroke-miterlimit="10" stroke-linecap="round"/>
<path d="M18.5 13H20" stroke="#FFD7DC" stroke-miterlimit="10" stroke-linecap="round"/>
<path d="M22 13H23" stroke="#FFD7DC" stroke-miterlimit="10" stroke-linecap="round"/>
</svg>
