<svg width="28" height="28" viewBox="0 0 28 28" fill="none" xmlns="http://www.w3.org/2000/svg">
<path d="M3.12856 8.5H18.6286H24.6286L25.6286 15.5L26.6286 23.5L25.6286 25.5L16.1286 27L4.62856 26.5L0.628555 24.5L2.12856 13.5L3.12856 8.5Z" fill="#FFD7DC"/>
<path fill-rule="evenodd" clip-rule="evenodd" d="M3.00153 7.80356H24.2515C24.3241 7.80356 24.3938 7.81594 24.4586 7.8387C24.4982 7.82486 24.5398 7.81481 24.583 7.80905C24.9252 7.76343 25.2395 8.00382 25.2851 8.34597L26.5226 17.6275L27.2395 22.5005L27.2461 22.545L27.2462 22.5901C27.2464 22.683 27.2488 22.7818 27.2512 22.8854L27.2513 22.8856C27.271 23.7097 27.2978 24.8337 26.3033 25.661C25.3512 26.453 24.0758 26.9147 22.7415 26.9823C19.8244 27.3989 16.8664 27.6139 13.9016 27.625L13.8993 27.625H13.3579L13.3555 27.625C10.3908 27.6139 7.43278 27.3989 4.5156 26.9823C3.18129 26.9147 1.90601 26.453 0.953848 25.661C-0.0406714 24.8337 -0.0138099 23.7096 0.00588304 22.8855C0.00835908 22.7819 0.0107218 22.683 0.0109268 22.5901L0.0110262 22.545L0.0175828 22.5005L0.735194 17.6233L0.736488 17.6145L0.738032 17.6057L2.3733 8.33166C2.38308 8.26882 2.40222 8.20908 2.42925 8.15392C2.46586 8.07896 2.5167 8.01323 2.57771 7.95956C2.65105 7.89491 2.73966 7.8472 2.83744 7.82253C2.89023 7.80913 2.94532 7.80253 3.00153 7.80356ZM3.51529 9.05356L1.97059 17.8141L1.26079 22.6381C1.26042 22.7339 1.25959 22.8254 1.25879 22.913V22.913C1.25079 23.7963 1.24642 24.2784 1.75323 24.7C2.47823 25.3031 3.49587 25.6841 4.60386 25.7351L4.63394 25.7365L4.66374 25.7408C7.53249 26.1518 10.4423 26.364 13.3592 26.375H13.8979C16.8148 26.364 19.7247 26.1518 22.5934 25.7408L22.6232 25.7365L22.6533 25.7351C23.7613 25.6841 24.7789 25.3031 25.504 24.7C26.0107 24.2785 26.0063 23.7964 25.9983 22.9132C25.9975 22.8256 25.9967 22.734 25.9963 22.6381L25.2853 17.8053L25.2841 17.7969L25.2841 17.7969L24.1184 9.05356H3.51529Z" fill="#FFD7DC"/>
<path d="M6.53429 23.2857H20.4893" stroke="#CE4E64" stroke-width="1.25" stroke-miterlimit="10" stroke-linecap="round"/>
<path d="M10.0897 5.2449C10.0897 5.2449 9.68305 0.957123 13.6211 1.00032C17.5611 0.957123 17.1526 5.2449 17.1526 5.2449" stroke="#FFD7DC" stroke-width="1.25" stroke-miterlimit="10" stroke-linecap="round"/>
<path d="M10.0777 5.2449V12.6735" stroke="#FFD7DC" stroke-width="1.25" stroke-miterlimit="10" stroke-linecap="round"/>
<path d="M17.1646 5.2449V12.6735" stroke="#FFD7DC" stroke-width="1.25" stroke-miterlimit="10" stroke-linecap="round"/>
<path d="M10.7589 14C10.7589 14.772 10.1676 15.3571 9.48716 15.3571C8.80673 15.3571 8.21544 14.772 8.21544 14C8.21544 13.228 8.80673 12.6428 9.48716 12.6428C10.1676 12.6428 10.7589 13.228 10.7589 14Z" stroke="#CE4E64"/>
<path d="M19.0269 14C19.0269 14.772 18.4356 15.3571 17.7552 15.3571C17.0748 15.3571 16.4835 14.772 16.4835 14C16.4835 13.228 17.0748 12.6428 17.7552 12.6428C18.4356 12.6428 19.0269 13.228 19.0269 14Z" stroke="#CE4E64"/>
</svg>
