<svg width="30" height="30" viewBox="0 0 30 30" fill="none" xmlns="http://www.w3.org/2000/svg">
<path d="M22 19V20.25V21.5" stroke="#F1C40F" stroke-width="1.25" stroke-miterlimit="10" stroke-linecap="round"/>
<path d="M22.7095 22.6381C22.7095 23.0247 22.3961 23.3381 22.0095 23.3381C21.6229 23.3381 21.3095 23.0247 21.3095 22.6381C21.3095 22.2515 21.6229 21.9381 22.0095 21.9381C22.3961 21.9381 22.7095 22.2515 22.7095 22.6381Z" stroke="#3BB77E" stroke-width="0.6"/>
<path d="M3 16H26L27 17H3V16Z" fill="#F1C40F"/>
<path d="M19.0628 4.5C19.3449 4.5 19.3684 4.50638 19.3812 4.51077C19.4047 4.5188 19.4265 4.53113 19.4454 4.54711L19.7674 4.16531L19.4454 4.54712C19.4558 4.55586 19.4733 4.5727 19.6185 4.81461L27.2409 17.5186C27.4242 17.8241 27.5421 18.0218 27.614 18.1732C27.6635 18.2775 27.6722 18.3229 27.6737 18.3333C27.6659 18.3795 27.6421 18.4215 27.6065 18.452C27.5968 18.456 27.5534 18.4719 27.4385 18.4831C27.2717 18.4994 27.0415 18.5 26.6852 18.5H2.99443C2.64309 18.5 2.41654 18.4994 2.25232 18.4834C2.13925 18.4724 2.09658 18.4567 2.08701 18.4527C2.05134 18.4226 2.02734 18.3809 2.01919 18.3349C2.02054 18.3246 2.02847 18.2799 2.07572 18.1766C2.14434 18.0265 2.25763 17.8303 2.4341 17.5265L9.81327 4.82253L9.38092 4.57139L9.81327 4.82253C9.95724 4.57467 9.97492 4.55731 9.98532 4.54837C10.0044 4.53197 10.0264 4.51932 10.0501 4.51107L9.8869 4.04109L10.0501 4.51107C10.0631 4.50657 10.087 4.5 10.3736 4.5H19.0628Z" stroke="#3BB77E"/>
<mask id="path-5-inside-1_2_149" fill="white">
<path fill-rule="evenodd" clip-rule="evenodd" d="M17 18H13V24H10.5C10.2239 24 10 24.2239 10 24.5V25.5V26.5V27.5C10 27.7761 10.2239 28 10.5 28H19.5C19.7761 28 20 27.7761 20 27.5V26.5V25.5V24.5C20 24.2239 19.7761 24 19.5 24H17V18Z"/>
</mask>
<path fill-rule="evenodd" clip-rule="evenodd" d="M17 18H13V24H10.5C10.2239 24 10 24.2239 10 24.5V25.5V26.5V27.5C10 27.7761 10.2239 28 10.5 28H19.5C19.7761 28 20 27.7761 20 27.5V26.5V25.5V24.5C20 24.2239 19.7761 24 19.5 24H17V18Z" fill="#F1C40F"/>
<path d="M13 18V17H12V18H13ZM17 18H18V17H17V18ZM13 24V25H14V24H13ZM17 24H16V25H17V24ZM13 19H17V17H13V19ZM14 24V18H12V24H14ZM10.5 25H13V23H10.5V25ZM11 24.5C11 24.7761 10.7761 25 10.5 25V23C9.67157 23 9 23.6716 9 24.5H11ZM11 25.5V24.5H9V25.5H11ZM11 26.5V25.5H9V26.5H11ZM11 27.5V26.5H9V27.5H11ZM10.5 27C10.7761 27 11 27.2239 11 27.5H9C9 28.3284 9.67157 29 10.5 29V27ZM19.5 27H10.5V29H19.5V27ZM19 27.5C19 27.2239 19.2239 27 19.5 27V29C20.3284 29 21 28.3284 21 27.5H19ZM19 26.5V27.5H21V26.5H19ZM19 25.5V26.5H21V25.5H19ZM19 24.5V25.5H21V24.5H19ZM19.5 25C19.2239 25 19 24.7761 19 24.5H21C21 23.6716 20.3284 23 19.5 23V25ZM17 25H19.5V23H17V25ZM16 18V24H18V18H16Z" fill="#3BB77E" mask="url(#path-5-inside-1_2_149)"/>
<path d="M6 15H7" stroke="#F1C40F" stroke-miterlimit="10" stroke-linecap="round"/>
<path d="M9 15H10" stroke="#F1C40F" stroke-miterlimit="10" stroke-linecap="round"/>
<path d="M12 15H13" stroke="#F1C40F" stroke-miterlimit="10" stroke-linecap="round"/>
<path d="M15 15H16.5" stroke="#F1C40F" stroke-miterlimit="10" stroke-linecap="round"/>
<path d="M18.5 15H20" stroke="#F1C40F" stroke-miterlimit="10" stroke-linecap="round"/>
<path d="M22 15H23" stroke="#F1C40F" stroke-miterlimit="10" stroke-linecap="round"/>
</svg>
