<svg width="30" height="30" viewBox="0 0 30 30" fill="none" xmlns="http://www.w3.org/2000/svg">
<path d="M2.47276 19.5506H28.325C28.0781 21.5984 26.3344 23.1855 24.22 23.1855H3.97276C3.14433 23.1855 2.47276 22.5139 2.47276 21.6855V19.5506Z" fill="#CE4E64" stroke="#FFD7DC"/>
<path d="M3.50014 10.5L4.00014 10.2444H4.29019L7.99807 11.1714H10.779L12.1694 7.92697L13.5599 7.46349L21.9026 13.0253L28.3914 17.1967V19.5141H15.4138L1.97276 19.0506L1.50928 16.7332L2.89973 12.0983L3.50014 10.5Z" fill="#CE4E64"/>
<path fill-rule="evenodd" clip-rule="evenodd" d="M16.0481 8.65843L19.9544 11.4393L26.1044 14.6837L27.6652 15.5855C28.2125 15.9017 28.6348 16.396 28.8616 16.9859C28.9834 17.3023 29.0458 17.6385 29.0458 17.9776V18.6976C29.0458 18.802 29.0307 18.906 29.001 19.0061C28.8644 19.4664 28.4414 19.7821 27.9613 19.7821H2.03888C1.59584 19.7821 1.23669 19.4229 1.23669 18.9799V17.3234C1.23669 17.1095 1.2646 16.8965 1.31971 16.6898L2.76106 11.2848C2.96443 10.5222 3.56582 9.93009 4.33152 9.73866C4.73191 9.63856 5.15254 9.65472 5.54407 9.78523L6.33503 10.0489L8.50145 10.8725C9.81009 11.37 11.2117 10.4034 11.2117 9.00333C11.2117 7.34576 13.1125 6.40787 14.428 7.41639L16.0481 8.65843ZM19.3711 12.5449L25.4999 15.7781L27.0399 16.6679C27.3395 16.841 27.5707 17.1116 27.695 17.4346C27.7616 17.6079 27.7958 17.7919 27.7958 17.9776V18.5321H2.48669V17.3234C2.48669 17.2182 2.50041 17.1135 2.52751 17.0119L3.96886 11.6069C4.05508 11.2835 4.31005 11.0325 4.63469 10.9513C4.80445 10.9089 4.98278 10.9157 5.14878 10.9711L5.9151 11.2265L8.05726 12.0409C10.1839 12.8494 12.4617 11.2785 12.4617 9.00333C12.4617 8.38192 13.1743 8.03031 13.6675 8.4084L15.2875 9.65044L15.3051 9.66391L15.3231 9.67674L19.2294 12.4576L19.2973 12.506L19.3711 12.5449ZM13.9427 16.1879C13.7991 16.3998 13.5109 16.4552 13.299 16.3116C13.0871 16.168 13.0317 15.8798 13.1753 15.6679L15.6484 12.0185C15.792 11.8066 16.0802 11.7513 16.2921 11.8949C16.504 12.0385 16.5594 12.3267 16.4158 12.5386L13.9427 16.1879ZM16.1686 16.6521C16.025 16.864 15.7369 16.9194 15.525 16.7758C15.3131 16.6322 15.2577 16.344 15.4013 16.1321L16.9614 13.83C17.105 13.6181 17.3932 13.5627 17.6051 13.7063C17.817 13.8499 17.8723 14.1381 17.7287 14.35L16.1686 16.6521ZM17.3789 17.1636C17.5908 17.3072 17.879 17.2519 18.0226 17.04L19.2173 15.277C19.3609 15.0651 19.3056 14.7769 19.0937 14.6333C18.8818 14.4897 18.5936 14.5451 18.45 14.757L17.2552 16.5199C17.1116 16.7318 17.167 17.02 17.3789 17.1636ZM19.8765 17.2052C19.7329 17.4171 19.4447 17.4725 19.2328 17.3289C19.0209 17.1853 18.9656 16.8971 19.1092 16.6852L19.7877 15.6839C19.9313 15.472 20.2195 15.4167 20.4314 15.5603C20.6433 15.7039 20.6987 15.992 20.5551 16.2039L19.8765 17.2052Z" fill="#FFD7DC"/>
<path d="M2.5 13.5C2.5 13.5 0.939316 13.1561 1.44062 12.0236C1.91875 10.8805 3 11.5 3 11.5" stroke="#CE4E64" stroke-width="1.25" stroke-miterlimit="10" stroke-linecap="round"/>
</svg>
