<svg width="30" height="30" viewBox="0 0 30 30" fill="none" xmlns="http://www.w3.org/2000/svg">
<path fill-rule="evenodd" clip-rule="evenodd" d="M15.1871 26.8375L15.0486 27L4.1312 15.4273C1.37659 12.5073 1.28751 7.62505 3.89161 4.5701C6.49571 1.51515 10.8727 1.36709 13.6273 4.28706L14.8411 5.57368L15.8827 4.35179C18.4725 1.3136 22.7927 1.20477 25.5322 4.10873C28.2717 7.01268 28.3931 11.8297 25.8033 14.8679L15.4041 27.0675L15.1871 26.8375Z" fill="#CE4E64"/>
<path fill-rule="evenodd" clip-rule="evenodd" d="M16.6347 9H13.3173V12.432L10 12.4814L10.0491 15.8143L13.3173 15.7657V19H16.6347V15.7164L20 15.6663L19.9509 12.3333L16.6347 12.3827V9Z" fill="#FFD7DC"/>
</svg>
