<svg width="30" height="30" viewBox="0 0 30 30" fill="none" xmlns="http://www.w3.org/2000/svg">
<path d="M7.42618 20.6303C7.10508 19.3662 8.06037 18.1379 9.36463 18.1379H21.3188C22.6032 18.1379 23.5547 19.3315 23.2685 20.5837L21.9283 26.4457C21.7204 27.3551 20.9115 28 19.9786 28H10.8537C9.93873 28 9.14046 27.3791 8.91521 26.4924L7.42618 20.6303Z" fill="#CE4E64"/>
<rect x="6.89309" y="16.4448" width="16.8345" height="2.48966" rx="0.9" fill="#CE4E64" stroke="#FFD7DC" stroke-width="0.2"/>
<path d="M15.9982 2.70062C16.0425 2.74575 16.0822 2.79512 16.1168 2.84803L16.5677 3.53695L17.0707 4.30542L17.5736 5.33005L18.0765 6.35468L18.341 6.8935C18.4995 7.21643 18.6227 7.55553 18.7085 7.90489L18.831 8.40394L19.0756 9.40074C19.0801 9.41923 19.0824 9.4382 19.0824 9.45723V9.45723C19.0824 9.71906 19.4444 9.78759 19.5401 9.54387L19.5667 9.47614C19.579 9.44475 19.5976 9.41617 19.6212 9.39211L20.0883 8.91626V8.91626C20.4193 8.5791 20.8059 8.2946 21.227 8.08017V8.08017C21.4732 7.95476 21.7308 7.85298 21.9962 7.77619L22.4828 7.63547L23.6757 7.40825C23.7767 7.389 23.8794 7.37931 23.9822 7.37931L25.2128 7.37931C25.4381 7.37931 25.6207 7.56193 25.6207 7.7872V7.7872C25.6207 7.81406 25.618 7.84085 25.6128 7.86718L25.1724 10.069L24.8439 11.0545C24.7642 11.2937 24.6665 11.5265 24.5516 11.751L24.1671 12.5025L23.8276 13.2069L23.1083 14.2956L22.1001 15.5764V15.5764C21.7863 16.0559 21.2518 16.3448 20.6787 16.3448H11.2868H11.1763C9.68253 16.3448 8.29596 15.5688 7.51473 14.2956V14.2956L6.54559 12.9135C6.35393 12.6402 6.19012 12.3483 6.05662 12.0424L5.57664 10.9423C5.36128 10.4487 5.22708 9.92357 5.17921 9.3872L5.00001 7.37931V7.37931C5.00001 7.152 5.21415 6.98557 5.43443 7.04166L8.31962 7.7764C8.61898 7.85264 8.9028 7.98039 9.15836 8.15393L9.52651 8.40394L10.5324 8.91626L11.2441 9.39954C11.2723 9.41871 11.2964 9.44327 11.3151 9.47181V9.47181C11.4557 9.6867 11.7898 9.58711 11.7898 9.3303V8.94656C11.7898 8.92639 11.7914 8.90626 11.7946 8.88635L11.9553 7.90433C12.0124 7.5553 12.1064 7.21332 12.2357 6.88412L12.5442 6.09852L13.0471 5.07389L13.8015 3.7931L14.5559 2.76847L14.6226 2.70062C15.0003 2.31579 15.6204 2.31579 15.9982 2.70062V2.70062Z" fill="#CE4E64"/>
<path d="M14.8621 8.72414C14.8621 8.47656 15.0628 8.27586 15.3103 8.27586V8.27586C15.5579 8.27586 15.7586 8.47656 15.7586 8.72414V16.3448H14.8621V8.72414Z" fill="#FFD7DC"/>
<path d="M20.1934 12.3706C20.4228 12.2252 20.7268 12.2934 20.8721 12.5229V12.5229C21.0175 12.7524 20.9494 13.0563 20.7199 13.2017L15.7586 16.3448L15.2321 15.5138L20.1934 12.3706Z" fill="#FFD7DC"/>
<path d="M9.36189 12.379C9.1728 12.244 9.12898 11.9812 9.26403 11.7921V11.7921C9.39908 11.603 9.66185 11.5592 9.85095 11.6942L15.437 15.6836L14.948 16.3684L9.36189 12.379Z" fill="#FFD7DC"/>
</svg>
