<svg width="30" height="33" viewBox="0 0 30 33" fill="none" xmlns="http://www.w3.org/2000/svg">
<rect x="5.13907" y="3.32727" width="21.0727" height="20.6675" rx="10.3337" fill="#FFD7DC"/>
<path d="M13.0191 2.66281C11.6087 0.971776 3.78981 3.97658 4.28625 6.17493C4.78268 8.37329 7.79836 13.0093 10.1714 11.5855C12.5445 10.1617 14.4294 4.35384 13.0191 2.66281Z" fill="#CE4E64" stroke="#FFD7DC" stroke-width="0.1"/>
<path d="M17.9809 2.66281C19.3913 0.971776 27.2102 3.97658 26.7138 6.17493C26.2173 8.37329 23.2016 13.0093 20.8286 11.5855C18.4555 10.1617 16.5706 4.35384 17.9809 2.66281Z" fill="#CE4E64" stroke="#FFD7DC" stroke-width="0.1"/>
<circle r="1.36576" transform="matrix(-1 0 0 1 20.2898 13.236)" fill="#CE4E64"/>
<circle r="0.303502" transform="matrix(-1 0 0 1 20.82 12.9332)" fill="white"/>
<path d="M12.543 13.9586C12.543 13.7591 12.5037 13.5616 12.4274 13.3774C12.3511 13.1931 12.2392 13.0257 12.0982 12.8846C11.9572 12.7436 11.7897 12.6317 11.6055 12.5554C11.4212 12.4791 11.2237 12.4398 11.0243 12.4398C10.8248 12.4398 10.6273 12.4791 10.4431 12.5554C10.2588 12.6317 10.0914 12.7436 9.95034 12.8846C9.80931 13.0257 9.69744 13.1931 9.62111 13.3774C9.54479 13.5616 9.5055 13.7591 9.5055 13.9586" stroke="#CE4E64" stroke-linecap="round" stroke-linejoin="round"/>
<ellipse cx="15.5736" cy="18.2301" rx="5.68839" ry="3.70197" fill="#CE4E64"/>
<path d="M15.6754 16.3342V17.8592C15.6754 18.3572 16.0792 18.761 16.5772 18.761H16.7032C17.1316 18.761 17.479 18.4136 17.479 17.9852V17.9852" stroke="#FEB1AA" stroke-linecap="round" stroke-linejoin="round"/>
<path d="M15.6754 16.3341V17.8592C15.6754 18.3572 15.2717 18.761 14.7737 18.761H14.6477C14.2192 18.761 13.8719 18.4136 13.8719 17.9852V17.9852" stroke="#FEB1AA" stroke-linecap="round" stroke-linejoin="round"/>
<path d="M16.9789 16.1029C16.9789 15.7574 16.3953 15.4773 15.6755 15.4773C14.9557 15.4773 14.3721 15.7574 14.3721 16.1029C14.3721 16.4484 14.9557 17.2694 15.6755 17.2694C16.3953 17.2694 16.9789 16.4484 16.9789 16.1029Z" fill="#FEB1AA"/>
<ellipse cx="9.44735" cy="16.1418" rx="1.46061" ry="0.854299" fill="#CE4E64"/>
<path d="M22.9417 16.1418C22.9417 16.6136 22.2878 16.9961 21.4811 16.9961C20.6744 16.9961 20.0205 16.6136 20.0205 16.1418C20.0205 15.6699 20.6744 15.2875 21.4811 15.2875C22.2878 15.2875 22.9417 15.6699 22.9417 16.1418Z" fill="#CE4E64"/>
<path d="M12.3802 28.4577C12.9166 28.4598 13.3772 28.0773 13.4734 27.5499L17.5963 27.5562C17.7117 28.1602 18.2946 28.5579 18.8983 28.4445C19.5019 28.3311 19.8976 27.7496 19.7822 27.1455C19.7389 26.9186 19.626 26.7105 19.4593 26.5502C19.6794 26.3426 19.8038 26.053 19.803 25.7499C19.816 25.1355 19.3284 24.6253 18.714 24.6102C18.1597 24.5966 17.6813 24.9931 17.5922 25.54L13.47 25.533C13.3546 24.929 12.7716 24.5313 12.168 24.6447C11.5644 24.7581 11.1686 25.3397 11.2841 25.9437C11.3274 26.1706 11.4403 26.3787 11.607 26.539C11.1633 26.9629 11.1485 27.6672 11.5738 28.1123C11.7844 28.3327 12.0758 28.4575 12.3802 28.4577Z" fill="#FFD7DC"/>
</svg>
