<svg width="30" height="30" viewBox="0 0 30 30" fill="none" xmlns="http://www.w3.org/2000/svg">
<path d="M17.5 3L20 5L20.5 6.5L24.5 8.5L25.5 12L26 14L26.5 15.5L26 23.5H22L20.5 26L15 27L8.5 26L7.5 25V23.5H5L3.5 20.5L3 16.5L4 12.5L5 8.5L8 7L9.5 4.5L12 3.5L14.5 3H17.5Z" fill="#FFD7DC"/>
<path d="M8.824 6.67024C8.824 6.67024 8.15165 2.96293 14.6636 3.00028C21.1786 2.96293 20.5031 6.67024 20.5031 6.67024" stroke="#CE4E64" stroke-width="1.25" stroke-miterlimit="10" stroke-linecap="round"/>
<path d="M7.63804 23.4045H4.37274C4.16476 23.4036 3.96465 23.3248 3.81193 23.1836C3.65922 23.0425 3.56499 22.8491 3.54785 22.6419L3 15.5479L5.01086 8.76823C5.06364 8.58414 5.18072 8.4251 5.34081 8.32L8.64034 6.62042L14.6667 8.83361L20.693 6.63288L23.9925 8.33245C24.1534 8.43672 24.2707 8.59609 24.3225 8.78069L26.3333 15.5603L25.7855 22.6543C25.7683 22.8616 25.6741 23.0549 25.5214 23.1961C25.3687 23.3373 25.1686 23.4161 24.9606 23.4169H21.6953" stroke="#CE4E64" stroke-width="1.25" stroke-miterlimit="10" stroke-linecap="round"/>
<path d="M11.364 7.62276V11.8561" stroke="#CE4E64" stroke-width="1.25" stroke-miterlimit="10" stroke-linecap="round"/>
<path d="M7.63804 14.4148V23.7749C7.63694 24.4108 7.87914 25.023 8.31495 25.486C8.75077 25.949 9.34718 26.2278 9.98195 26.2651C11.4814 26.5395 13.0022 26.6812 14.5266 26.6885H14.8067C16.3311 26.6812 17.8519 26.5395 19.3514 26.2651V26.2651C19.9862 26.2278 20.5826 25.949 21.0184 25.486C21.4542 25.023 21.6964 24.4108 21.6953 23.7749V14.4148" stroke="#CE4E64" stroke-width="1.25" stroke-miterlimit="10" stroke-linecap="round"/>
<path d="M7.63804 20.6933C8.54615 20.6933 9.41708 20.3325 10.0592 19.6904C10.7013 19.0483 11.0621 18.1774 11.0621 17.2692H18.2962C18.2962 18.1774 18.6569 19.0483 19.2991 19.6904C19.9412 20.3325 20.8121 20.6933 21.7202 20.6933" stroke="#CE4E64" stroke-width="1.25" stroke-linecap="round" stroke-linejoin="round"/>
<path d="M17.9662 7.62276V11.8561" stroke="#CE4E64" stroke-width="1.25" stroke-miterlimit="10" stroke-linecap="round"/>
</svg>
