<svg width="30" height="30" viewBox="0 0 30 30" fill="none" xmlns="http://www.w3.org/2000/svg">
<path d="M15.4504 18.5878C15.4504 22.365 12.5302 25.3877 8.97521 25.3877C5.42025 25.3877 2.5 22.365 2.5 18.5878C2.5 14.8107 5.42025 11.7879 8.97521 11.7879C12.5302 11.7879 15.4504 14.8107 15.4504 18.5878Z" fill="#FFD7DC" stroke="#FFD7DC"/>
<path d="M5.49999 14.0681C5.49999 14.0681 7.36782 14.906 7.33828 18.7223C7.36782 22.5403 5.49999 23.0681 5.49999 23.0681" fill="#FFD7DC"/>
<path d="M5.49999 14.0681C5.49999 14.0681 7.36782 14.906 7.33828 18.7223C7.36782 22.5403 5.49999 23.0681 5.49999 23.0681" stroke="#CE4E64" stroke-miterlimit="10" stroke-linecap="round"/>
<path d="M12.5 23.0681C12.5 23.0681 10.341 22.3009 10.3706 18.4847C10.341 14.6666 12.5 14.0681 12.5 14.0681" fill="#FFD7DC"/>
<path d="M12.5 23.0681C12.5 23.0681 10.341 22.3009 10.3706 18.4847C10.341 14.6666 12.5 14.0681 12.5 14.0681" stroke="#CE4E64" stroke-miterlimit="10" stroke-linecap="round"/>
<path d="M17 6.0681L16.5 4.5681L17.5 3.0681L19 2.0681L21 1.5681L23 2.0681L24.5 3.56811L25 12.0681L26 22.0681L27 22.5681L28 23.0681L28 25.0681L27 26.0681L25 26.5681L22.5 27.0681L21 26.0681L20.5 24.5681L21.5 23.0681L20 18.0681L19.5 15.0681L18.5 11.5681L17.5 8.0681L17 6.0681Z" fill="#FFD7DC"/>
<path d="M24.4931 3.63987L25.8881 21.8896" stroke="#FFD7DC" stroke-width="1.25" stroke-miterlimit="10" stroke-linecap="round"/>
<path d="M16.8203 5.82986L21.5305 22.9678" stroke="#FFD7DC" stroke-width="1.25" stroke-miterlimit="10" stroke-linecap="round"/>
<path d="M16.8204 5.82986C16.8204 5.82986 15.6787 2.75305 20.0667 1.87866C24.447 0.951488 24.4797 3.64266 24.4797 3.64266" stroke="#FFD7DC" stroke-width="1.25" stroke-miterlimit="10" stroke-linecap="round"/>
<path d="M20 21.0681L27 19.5681" stroke="#CE4E64" stroke-miterlimit="10" stroke-linecap="round"/>
<path d="M19.5 19.5681L26.5 18.0681" stroke="#CE4E64" stroke-miterlimit="10" stroke-linecap="round"/>
<path d="M20.5014 25.3639L20.4938 25.3239L20.4817 25.2908L20.48 25.2853C20.4774 25.2767 20.4728 25.2603 20.4675 25.2369C20.4568 25.1899 20.4438 25.1164 20.439 25.0236C20.4293 24.8386 20.4518 24.5813 20.5858 24.2979C20.8446 23.7503 21.6038 22.942 23.858 22.4727C25.8915 22.0495 26.9021 22.4325 27.4015 22.8276C27.9081 23.2285 28.0031 23.7297 28.016 23.798L28.0163 23.7997C28.076 24.1139 28.159 24.5899 27.8473 25.0908C27.5317 25.5979 26.7249 26.2609 24.6597 26.6908C22.5945 27.1207 21.6067 26.8312 21.1297 26.489C20.6585 26.1511 20.5611 25.6782 20.5014 25.3639Z" stroke="#FFD7DC"/>
</svg>
