<svg width="30" height="30" viewBox="0 0 30 30" fill="none" xmlns="http://www.w3.org/2000/svg">
<path d="M15.871 20.9684C16.1668 20.5131 16.8332 20.5131 17.129 20.9684L19.6446 24.8415C19.9687 25.3404 19.6106 26 19.0157 26H13.9843C13.3894 26 13.0313 25.3404 13.3554 24.8415L15.871 20.9684Z" fill="#CE4E64"/>
<mask id="path-2-inside-1_23_172" fill="white">
<path d="M3.15384 6C3.15384 4.89543 4.04927 4 5.15384 4H27C28.1046 4 29 4.89543 29 6V20.3333C29 21.4379 28.1046 22.3333 27 22.3333H5.15384C4.04927 22.3333 3.15384 21.4379 3.15384 20.3333V6Z"/>
</mask>
<path d="M5.15384 5H27V3H5.15384V5ZM28 6V20.3333H30V6H28ZM27 21.3333H5.15384V23.3333H27V21.3333ZM4.15384 20.3333V6H2.15384V20.3333H4.15384ZM5.15384 21.3333C4.60155 21.3333 4.15384 20.8856 4.15384 20.3333H2.15384C2.15384 21.9902 3.49699 23.3333 5.15384 23.3333V21.3333ZM28 20.3333C28 20.8856 27.5523 21.3333 27 21.3333V23.3333C28.6568 23.3333 30 21.9902 30 20.3333H28ZM27 5C27.5523 5 28 5.44772 28 6H30C30 4.34314 28.6568 3 27 3V5ZM5.15384 3C3.49698 3 2.15384 4.34315 2.15384 6H4.15384C4.15384 5.44772 4.60156 5 5.15384 5V3Z" fill="#CE4E64" mask="url(#path-2-inside-1_23_172)"/>
<mask id="path-4-inside-2_23_172" fill="white">
<rect x="4" y="5" width="24" height="17" rx="1"/>
</mask>
<rect x="4" y="5" width="24" height="17" rx="1" stroke="#CE4E64" stroke-width="3" mask="url(#path-4-inside-2_23_172)"/>
<path d="M2 10.6111H8.61538C8.89153 10.6111 9.11539 10.835 9.11539 11.1111V25C9.11539 25.2761 8.89153 25.5 8.61539 25.5H2C1.72386 25.5 1.5 25.2761 1.5 25V11.1111C1.5 10.835 1.72386 10.6111 2 10.6111Z" fill="#CE4E64" stroke="#CE4E64"/>
<path d="M2.07692 15.6111H8.53846" stroke="#FFD7DC"/>
<path d="M2.07692 20.5H8.53846" stroke="#FFD7DC"/>
<ellipse cx="6.92307" cy="11.9445" rx="0.538462" ry="0.611111" fill="#FFD7DC"/>
<ellipse cx="3.6923" cy="11.9445" rx="0.538462" ry="0.611111" fill="#FFD7DC"/>
<path d="M15.875 14.9084V14.8409C15.8797 14.4006 15.9235 14.0502 16.0064 13.7898C16.0916 13.5294 16.2124 13.3187 16.3686 13.1577C16.5249 12.9967 16.7131 12.8499 16.9332 12.7173C17.0753 12.6274 17.2031 12.5268 17.3168 12.4155C17.4304 12.3042 17.5204 12.1764 17.5866 12.032C17.6529 11.8875 17.6861 11.7277 17.6861 11.5526C17.6861 11.3419 17.6364 11.1596 17.5369 11.0057C17.4375 10.8518 17.3049 10.7334 17.1392 10.6506C16.9759 10.5653 16.7936 10.5227 16.5923 10.5227C16.41 10.5227 16.236 10.5606 16.0703 10.6364C15.9046 10.7121 15.7673 10.8305 15.6584 10.9915C15.5495 11.1501 15.4867 11.3549 15.4702 11.6058H14.3906C14.4072 11.1797 14.5149 10.8198 14.7138 10.5263C14.9126 10.2304 15.1754 10.0066 15.5021 9.85511C15.8312 9.7036 16.1946 9.62784 16.5923 9.62784C17.0279 9.62784 17.4091 9.70952 17.7358 9.87287C18.0625 10.0339 18.3158 10.2599 18.4957 10.5511C18.678 10.84 18.7692 11.1773 18.7692 11.5632C18.7692 11.8284 18.7277 12.0675 18.6449 12.2805C18.562 12.4912 18.4437 12.6795 18.2898 12.8452C18.1383 13.0109 17.956 13.1577 17.7429 13.2855C17.5417 13.411 17.3783 13.5412 17.2528 13.6761C17.1297 13.8111 17.0398 13.9709 16.983 14.1555C16.9261 14.3402 16.8954 14.5687 16.8906 14.8409V14.9084H15.875ZM16.4112 17.0675C16.2171 17.0675 16.0502 16.9988 15.9105 16.8615C15.7708 16.7218 15.701 16.5537 15.701 16.3572C15.701 16.1631 15.7708 15.9974 15.9105 15.8601C16.0502 15.7204 16.2171 15.6506 16.4112 15.6506C16.603 15.6506 16.7687 15.7204 16.9084 15.8601C17.0504 15.9974 17.1214 16.1631 17.1214 16.3572C17.1214 16.4875 17.0883 16.607 17.022 16.7159C16.9581 16.8224 16.8729 16.9077 16.7663 16.9716C16.6598 17.0355 16.5414 17.0675 16.4112 17.0675Z" fill="#CE4E64"/>
</svg>
