<svg width="30" height="30" viewBox="0 0 30 30" fill="none" xmlns="http://www.w3.org/2000/svg">
<path d="M4.36227 9.42857L25.6229 9.42857" stroke="#3BB77E" stroke-width="1.25" stroke-miterlimit="10" stroke-linecap="round"/>
<path d="M4.3623 9.42857L2.72498 18.7143L2.00737 23.5915C2.00524 24.5536 1.88274 25.4799 2.72498 26.1805C3.56722 26.8811 4.71982 27.3029 5.94654 27.3594C8.84439 27.7746 11.7834 27.989 14.7293 28H15.2707C18.2166 27.989 21.1556 27.7746 24.0535 27.3594C25.2802 27.3029 26.4328 26.8811 27.2751 26.1805C28.1173 25.4799 27.9948 24.5536 27.9926 23.5915L27.2751 18.7143L26.0371 9.42857" stroke="#3BB77E" stroke-width="1.25" stroke-miterlimit="10" stroke-linecap="round"/>
<path d="M7.90573 24.2857H21.8608" stroke="#F1C40F" stroke-width="1.25" stroke-miterlimit="10" stroke-linecap="round"/>
<path d="M11.4611 6.2449C11.4611 6.2449 11.0545 1.95712 14.9926 2.00032C18.9325 1.95712 18.524 6.2449 18.524 6.2449" stroke="#F1C40F" stroke-width="1.25" stroke-miterlimit="10" stroke-linecap="round"/>
<path d="M11.4492 6.2449V13.6735" stroke="#F1C40F" stroke-width="1.25" stroke-miterlimit="10" stroke-linecap="round"/>
<path d="M18.5361 6.2449V13.6735" stroke="#F1C40F" stroke-width="1.25" stroke-miterlimit="10" stroke-linecap="round"/>
<path d="M12.1303 15C12.1303 15.772 11.539 16.3571 10.8586 16.3571C10.1782 16.3571 9.58688 15.772 9.58688 15C9.58688 14.228 10.1782 13.6428 10.8586 13.6428C11.539 13.6428 12.1303 14.228 12.1303 15Z" stroke="#F1C40F"/>
<path d="M20.3984 15C20.3984 15.772 19.8071 16.3571 19.1266 16.3571C18.4462 16.3571 17.8549 15.772 17.8549 15C17.8549 14.228 18.4462 13.6428 19.1266 13.6428C19.8071 13.6428 20.3984 14.228 20.3984 15Z" stroke="#F1C40F"/>
</svg>
