<svg width="30" height="30" viewBox="0 0 30 30" fill="none" xmlns="http://www.w3.org/2000/svg">
<mask id="path-1-inside-1_2_144" fill="white">
<path fill-rule="evenodd" clip-rule="evenodd" d="M27.9615 19.3777C27.9832 19.8822 27.5718 20.2917 27.067 20.2917C26.9434 20.2917 26.8257 20.2671 26.718 20.2227V21.3083C26.718 22.0483 26.3094 22.7279 25.6557 23.0748L24.5176 23.6789C24.4649 23.7069 24.4061 23.7215 24.3464 23.7215C24.1447 23.7215 23.9812 23.558 23.9812 23.3563V16.8236C23.9812 16.6219 24.1447 16.4583 24.3464 16.4583C24.4061 16.4583 24.4649 16.473 24.5176 16.501L25.6557 17.105C25.7397 17.1496 25.8197 17.1997 25.8953 17.2547C25.7615 16.4753 25.5761 15.7105 25.3404 14.969C24.8041 13.2816 24.0181 11.7483 23.0271 10.4567C22.0362 9.1652 20.8597 8.1407 19.565 7.44172C18.2703 6.74274 16.8826 6.38299 15.4811 6.38299C14.0797 6.38299 12.692 6.74274 11.3973 7.44172C10.1025 8.1407 8.92612 9.1652 7.93516 10.4567C6.94421 11.7483 6.15815 13.2816 5.62185 14.969C5.40428 15.6536 5.22955 16.3581 5.09871 17.0757L6.18154 16.501C6.23427 16.473 6.29306 16.4583 6.35276 16.4583C6.55447 16.4583 6.71798 16.6219 6.71798 16.8236V23.3563C6.71798 23.558 6.55447 23.7215 6.35276 23.7215C6.29306 23.7215 6.23427 23.7069 6.18154 23.6789L5.04349 23.0748C4.38981 22.7279 3.98114 22.0483 3.98114 21.3083V20.2877C3.9529 20.2903 3.92427 20.2917 3.89533 20.2917C3.39044 20.2917 2.97908 19.8822 3.00082 19.3777C3.07959 17.5507 3.39407 15.7518 3.93265 14.0571C4.56083 12.0805 5.48157 10.2845 6.64231 8.77172C7.80304 7.2589 9.18103 6.05886 10.6976 5.24013C12.2142 4.4214 13.8396 4 15.4811 4C17.1227 4 18.7481 4.4214 20.2647 5.24013C21.7813 6.05886 23.1592 7.2589 24.32 8.77172C25.4807 10.2845 26.4015 12.0805 27.0296 14.0571C27.5682 15.7518 27.8827 17.5507 27.9615 19.3777ZM6.98115 15.5833C6.98115 14.4788 7.87658 13.5833 8.98115 13.5833C10.0857 13.5833 10.9812 14.4788 10.9812 15.5833V25C10.9812 26.1046 10.0857 27 8.98115 27C7.87658 27 6.98115 26.1046 6.98115 25V15.5833ZM19.9594 15.5833C19.9594 14.4788 20.8548 13.5833 21.9594 13.5833C23.064 13.5833 23.9594 14.4788 23.9594 15.5833V25C23.9594 26.1046 23.064 27 21.9594 27C20.8548 27 19.9594 26.1046 19.9594 25V15.5833Z"/>
</mask>
<path fill-rule="evenodd" clip-rule="evenodd" d="M27.9615 19.3777C27.9832 19.8822 27.5718 20.2917 27.067 20.2917C26.9434 20.2917 26.8257 20.2671 26.718 20.2227V21.3083C26.718 22.0483 26.3094 22.7279 25.6557 23.0748L24.5176 23.6789C24.4649 23.7069 24.4061 23.7215 24.3464 23.7215C24.1447 23.7215 23.9812 23.558 23.9812 23.3563V16.8236C23.9812 16.6219 24.1447 16.4583 24.3464 16.4583C24.4061 16.4583 24.4649 16.473 24.5176 16.501L25.6557 17.105C25.7397 17.1496 25.8197 17.1997 25.8953 17.2547C25.7615 16.4753 25.5761 15.7105 25.3404 14.969C24.8041 13.2816 24.0181 11.7483 23.0271 10.4567C22.0362 9.1652 20.8597 8.1407 19.565 7.44172C18.2703 6.74274 16.8826 6.38299 15.4811 6.38299C14.0797 6.38299 12.692 6.74274 11.3973 7.44172C10.1025 8.1407 8.92612 9.1652 7.93516 10.4567C6.94421 11.7483 6.15815 13.2816 5.62185 14.969C5.40428 15.6536 5.22955 16.3581 5.09871 17.0757L6.18154 16.501C6.23427 16.473 6.29306 16.4583 6.35276 16.4583C6.55447 16.4583 6.71798 16.6219 6.71798 16.8236V23.3563C6.71798 23.558 6.55447 23.7215 6.35276 23.7215C6.29306 23.7215 6.23427 23.7069 6.18154 23.6789L5.04349 23.0748C4.38981 22.7279 3.98114 22.0483 3.98114 21.3083V20.2877C3.9529 20.2903 3.92427 20.2917 3.89533 20.2917C3.39044 20.2917 2.97908 19.8822 3.00082 19.3777C3.07959 17.5507 3.39407 15.7518 3.93265 14.0571C4.56083 12.0805 5.48157 10.2845 6.64231 8.77172C7.80304 7.2589 9.18103 6.05886 10.6976 5.24013C12.2142 4.4214 13.8396 4 15.4811 4C17.1227 4 18.7481 4.4214 20.2647 5.24013C21.7813 6.05886 23.1592 7.2589 24.32 8.77172C25.4807 10.2845 26.4015 12.0805 27.0296 14.0571C27.5682 15.7518 27.8827 17.5507 27.9615 19.3777ZM6.98115 15.5833C6.98115 14.4788 7.87658 13.5833 8.98115 13.5833C10.0857 13.5833 10.9812 14.4788 10.9812 15.5833V25C10.9812 26.1046 10.0857 27 8.98115 27C7.87658 27 6.98115 26.1046 6.98115 25V15.5833ZM19.9594 15.5833C19.9594 14.4788 20.8548 13.5833 21.9594 13.5833C23.064 13.5833 23.9594 14.4788 23.9594 15.5833V25C23.9594 26.1046 23.064 27 21.9594 27C20.8548 27 19.9594 26.1046 19.9594 25V15.5833Z" fill="#F1C40F"/>
<path d="M27.9615 19.3777L28.9605 19.3347V19.3347L27.9615 19.3777ZM26.718 20.2227L27.0996 19.2984L25.718 18.728V20.2227H26.718ZM25.6557 23.0748L25.1868 22.1915L25.6557 23.0748ZM24.5176 23.6789L24.0488 22.7956L24.0488 22.7956L24.5176 23.6789ZM24.5176 16.501L24.0488 17.3843L24.0488 17.3843L24.5176 16.501ZM25.6557 17.105L25.1868 17.9883L25.6557 17.105ZM25.8953 17.2547L25.3068 18.0632L27.2974 19.5122L26.8808 17.0855L25.8953 17.2547ZM25.3404 14.969L26.2935 14.6662L25.3404 14.969ZM23.0271 10.4567L23.8205 9.84801V9.84801L23.0271 10.4567ZM19.565 7.44172L19.0899 8.32168L19.565 7.44172ZM11.3973 7.44172L10.9222 6.56176H10.9222L11.3973 7.44172ZM7.93516 10.4567L7.14179 9.84801L7.14179 9.84802L7.93516 10.4567ZM5.62185 14.969L6.57488 15.2719L6.57488 15.2719L5.62185 14.969ZM5.09871 17.0757L4.11493 16.8963L3.74473 18.9265L5.56753 17.959L5.09871 17.0757ZM6.18154 16.501L6.65036 17.3843L6.65037 17.3842L6.18154 16.501ZM6.18154 23.6789L5.71271 24.5622L5.71272 24.5622L6.18154 23.6789ZM5.04349 23.0748L5.51232 22.1915H5.51232L5.04349 23.0748ZM3.98114 20.2877H4.98114V19.1902L3.88836 19.292L3.98114 20.2877ZM3.00082 19.3777L3.9999 19.4208L3.00082 19.3777ZM3.93265 14.0571L2.97962 13.7542H2.97962L3.93265 14.0571ZM6.64231 8.77172L5.84893 8.16299L6.64231 8.77172ZM10.6976 5.24013L11.1726 6.12009H11.1727L10.6976 5.24013ZM20.2647 5.24013L19.7896 6.12009V6.12009L20.2647 5.24013ZM24.32 8.77172L25.1134 8.16299L24.32 8.77172ZM27.0296 14.0571L26.0766 14.36V14.36L27.0296 14.0571ZM27.067 21.2917C28.1122 21.2917 29.008 20.4362 28.9605 19.3347L26.9624 19.4208C26.9607 19.381 26.9783 19.3433 26.9999 19.3215C27.0198 19.3013 27.0451 19.2917 27.067 19.2917V21.2917ZM26.3364 21.147C26.5626 21.2404 26.8097 21.2917 27.067 21.2917V19.2917C27.077 19.2917 27.0888 19.2939 27.0996 19.2984L26.3364 21.147ZM27.718 21.3083V20.2227H25.718V21.3083H27.718ZM26.1245 23.9581C27.105 23.4377 27.718 22.4183 27.718 21.3083H25.718C25.718 21.6783 25.5137 22.0181 25.1868 22.1915L26.1245 23.9581ZM24.9864 24.5622L26.1245 23.9581L25.1868 22.1915L24.0488 22.7956L24.9864 24.5622ZM24.3464 24.7215C24.5695 24.7215 24.7893 24.6668 24.9865 24.5622L24.0488 22.7956C24.1405 22.7469 24.2427 22.7215 24.3464 22.7215V24.7215ZM22.9812 23.3563C22.9812 24.1103 23.5924 24.7215 24.3464 24.7215V22.7215C24.697 22.7215 24.9812 23.0057 24.9812 23.3563H22.9812ZM22.9812 16.8236V23.3563H24.9812V16.8236H22.9812ZM24.3464 15.4583C23.5924 15.4583 22.9812 16.0696 22.9812 16.8236H24.9812C24.9812 17.1741 24.697 17.4583 24.3464 17.4583V15.4583ZM24.9865 15.6177C24.7893 15.513 24.5696 15.4583 24.3464 15.4583V17.4583C24.2426 17.4583 24.1405 17.4329 24.0488 17.3843L24.9865 15.6177ZM26.1245 16.2217L24.9864 15.6177L24.0488 17.3843L25.1868 17.9883L26.1245 16.2217ZM26.4838 16.4462C26.3703 16.3636 26.2504 16.2885 26.1245 16.2217L25.1868 17.9883C25.229 18.0107 25.2691 18.0358 25.3068 18.0632L26.4838 16.4462ZM24.3874 15.2719C24.6088 15.9686 24.7835 16.6887 24.9097 17.4239L26.8808 17.0855C26.7395 16.2619 26.5433 15.4524 26.2935 14.6662L24.3874 15.2719ZM22.2337 11.0655C23.1482 12.2574 23.8831 13.6852 24.3874 15.2719L26.2935 14.6662C25.7251 12.8779 24.8879 11.2392 23.8205 9.84801L22.2337 11.0655ZM19.0899 8.32168C20.248 8.94687 21.3194 9.87379 22.2337 11.0655L23.8205 9.84801C22.7529 8.45662 21.4715 7.33452 20.04 6.56176L19.0899 8.32168ZM15.4811 7.38299C16.7083 7.38299 17.9336 7.69742 19.0899 8.32168L20.04 6.56176C18.6069 5.78807 17.0568 5.38299 15.4811 5.38299V7.38299ZM11.8723 8.32168C13.0287 7.69742 14.2539 7.38299 15.4811 7.38299V5.38299C13.9055 5.38299 12.3554 5.78807 10.9222 6.56176L11.8723 8.32168ZM8.72854 11.0655C9.64288 9.87379 10.7143 8.94687 11.8723 8.32168L10.9222 6.56176C9.49083 7.33452 8.20936 8.45662 7.14179 9.84801L8.72854 11.0655ZM6.57488 15.2719C7.07916 13.6852 7.81406 12.2574 8.72854 11.0655L7.14179 9.84802C6.07437 11.2392 5.23714 12.8779 4.66882 14.6662L6.57488 15.2719ZM6.08248 17.2551C6.20588 16.5784 6.37046 15.9151 6.57488 15.2719L4.66882 14.6662C4.43811 15.3921 4.25322 16.1379 4.11493 16.8963L6.08248 17.2551ZM5.56753 17.959L6.65036 17.3843L5.71271 15.6177L4.62988 16.1924L5.56753 17.959ZM6.65037 17.3842C6.55871 17.4329 6.45652 17.4583 6.35276 17.4583V15.4583C6.1296 15.4583 5.90983 15.513 5.7127 15.6177L6.65037 17.3842ZM6.35276 17.4583C6.00218 17.4583 5.71798 17.1741 5.71798 16.8236H7.71798C7.71798 16.0696 7.10675 15.4583 6.35276 15.4583V17.4583ZM5.71798 16.8236V23.3563H7.71798V16.8236H5.71798ZM5.71798 23.3563C5.71798 23.0057 6.00218 22.7215 6.35276 22.7215V24.7215C7.10676 24.7215 7.71798 24.1103 7.71798 23.3563H5.71798ZM6.35276 22.7215C6.45654 22.7215 6.55872 22.7469 6.65035 22.7956L5.71272 24.5622C5.90982 24.6668 6.12958 24.7215 6.35276 24.7215V22.7215ZM6.65036 22.7956L5.51232 22.1915L4.57467 23.9581L5.71271 24.5622L6.65036 22.7956ZM5.51232 22.1915C5.18547 22.0181 4.98114 21.6783 4.98114 21.3083H2.98114C2.98114 22.4183 3.59414 23.4377 4.57467 23.9581L5.51232 22.1915ZM4.98114 21.3083V20.2877H2.98114V21.3083H4.98114ZM3.89533 21.2917C3.95531 21.2917 4.01489 21.2889 4.07393 21.2834L3.88836 19.292C3.8909 19.2918 3.89324 19.2917 3.89533 19.2917V21.2917ZM2.00175 19.3347C1.95427 20.4362 2.8501 21.2917 3.89533 21.2917V19.2917C3.91714 19.2917 3.94251 19.3013 3.9624 19.3215C3.98394 19.3433 4.00161 19.381 3.9999 19.4208L2.00175 19.3347ZM2.97962 13.7542C2.41344 15.5357 2.0842 17.4222 2.00175 19.3347L3.9999 19.4208C4.07498 17.6792 4.37471 15.9678 4.88567 14.36L2.97962 13.7542ZM5.84893 8.16299C4.61173 9.77547 3.63982 11.6769 2.97962 13.7542L4.88567 14.36C5.48184 12.4841 6.35142 10.7936 7.43568 9.38045L5.84893 8.16299ZM10.2225 4.36017C8.56931 5.25269 7.08628 6.55031 5.84893 8.16299L7.43568 9.38045C8.5198 7.96748 9.79275 6.86504 11.1726 6.12009L10.2225 4.36017ZM15.4811 3C13.6654 3 11.8775 3.46672 10.2225 4.36017L11.1727 6.12009C12.5508 5.37608 14.0138 5 15.4811 5V3ZM20.7397 4.36017C19.0848 3.46672 17.2969 3 15.4811 3V5C16.9485 5 18.4115 5.37608 19.7896 6.12009L20.7397 4.36017ZM25.1134 8.16299C23.876 6.55031 22.393 5.25269 20.7397 4.36017L19.7896 6.12009C21.1695 6.86504 22.4425 7.96748 23.5266 9.38045L25.1134 8.16299ZM27.9827 13.7542C27.3225 11.6769 26.3506 9.77547 25.1134 8.16299L23.5266 9.38045C24.6109 10.7936 25.4804 12.4841 26.0766 14.36L27.9827 13.7542ZM28.9605 19.3347C28.8781 17.4222 28.5488 15.5357 27.9827 13.7542L26.0766 14.36C26.5876 15.9678 26.8873 17.6792 26.9624 19.4208L28.9605 19.3347ZM8.98115 12.5833C7.3243 12.5833 5.98115 13.9265 5.98115 15.5833H7.98115C7.98115 15.031 8.42887 14.5833 8.98115 14.5833V12.5833ZM11.9812 15.5833C11.9812 13.9265 10.638 12.5833 8.98115 12.5833V14.5833C9.53344 14.5833 9.98115 15.031 9.98115 15.5833H11.9812ZM11.9812 25V15.5833H9.98115V25H11.9812ZM8.98115 28C10.638 28 11.9812 26.6569 11.9812 25H9.98115C9.98115 25.5523 9.53344 26 8.98115 26V28ZM5.98115 25C5.98115 26.6569 7.3243 28 8.98115 28V26C8.42887 26 7.98115 25.5523 7.98115 25H5.98115ZM5.98115 15.5833V25H7.98115V15.5833H5.98115ZM21.9594 12.5833C20.3026 12.5833 18.9594 13.9265 18.9594 15.5833H20.9594C20.9594 15.031 21.4071 14.5833 21.9594 14.5833V12.5833ZM24.9594 15.5833C24.9594 13.9265 23.6163 12.5833 21.9594 12.5833V14.5833C22.5117 14.5833 22.9594 15.031 22.9594 15.5833H24.9594ZM24.9594 25V15.5833H22.9594V25H24.9594ZM21.9594 28C23.6163 28 24.9594 26.6569 24.9594 25H22.9594C22.9594 25.5523 22.5117 26 21.9594 26V28ZM18.9594 25C18.9594 26.6569 20.3026 28 21.9594 28V26C21.4071 26 20.9594 25.5523 20.9594 25H18.9594ZM18.9594 15.5833V25H20.9594V15.5833H18.9594Z" fill="#3BB77E" mask="url(#path-1-inside-1_2_144)"/>
</svg>
