<svg width="30" height="30" viewBox="0 0 30 30" fill="none" xmlns="http://www.w3.org/2000/svg">
<mask id="path-1-inside-1_2_148" fill="white">
<path fill-rule="evenodd" clip-rule="evenodd" d="M20.1667 21.8407C23.6241 20.304 26.0001 17.113 26.0001 13.4256C26.0001 8.23896 21.2991 4.03433 15.5001 4.03433C9.70107 4.03433 5.00006 8.23896 5.00006 13.4256C5.00006 17.113 7.37605 20.304 10.8334 21.8407V22.8604C10.8334 23.4127 11.2811 23.8604 11.8334 23.8604H19.1667C19.719 23.8604 20.1667 23.4127 20.1667 22.8604V21.8407Z"/>
</mask>
<path d="M20.1667 21.8407L19.7606 20.9269L19.1667 21.1909V21.8407H20.1667ZM10.8334 21.8407H11.8334V21.1909L11.2396 20.9269L10.8334 21.8407ZM25.0001 13.4256C25.0001 16.6571 22.9157 19.5245 19.7606 20.9269L20.5729 22.7545C24.3324 21.0835 27.0001 17.5688 27.0001 13.4256H25.0001ZM15.5001 5.03433C20.8546 5.03433 25.0001 8.89326 25.0001 13.4256H27.0001C27.0001 7.58466 21.7435 3.03433 15.5001 3.03433V5.03433ZM6.00006 13.4256C6.00006 8.89326 10.1455 5.03433 15.5001 5.03433V3.03433C9.25665 3.03433 4.00006 7.58466 4.00006 13.4256H6.00006ZM11.2396 20.9269C8.08443 19.5245 6.00006 16.6571 6.00006 13.4256H4.00006C4.00006 17.5688 6.66768 21.0835 10.4272 22.7545L11.2396 20.9269ZM11.8334 22.8604V21.8407H9.83339V22.8604H11.8334ZM11.8334 22.8604H11.8334H9.83339C9.83339 23.965 10.7288 24.8604 11.8334 24.8604V22.8604ZM19.1667 22.8604H11.8334V24.8604H19.1667V22.8604ZM19.1667 22.8604H19.1667V24.8604C20.2713 24.8604 21.1667 23.965 21.1667 22.8604H19.1667ZM19.1667 21.8407V22.8604H21.1667V21.8407H19.1667Z" fill="#3BB77E" mask="url(#path-1-inside-1_2_148)"/>
<path d="M19.5287 8.53947C19.5287 8.53947 20.479 8.35099 22.0287 10.5395C23.604 12.7112 23.0287 14.5395 23.0287 14.5395" stroke="#F1C40F" stroke-width="1.25" stroke-miterlimit="10" stroke-linecap="round"/>
<path d="M3 11.0343H3.81961" stroke="#F1C40F" stroke-miterlimit="10" stroke-linecap="round"/>
<path d="M5.6167 6.56192L5.07435 5.94741" stroke="#F1C40F" stroke-miterlimit="10" stroke-linecap="round"/>
<path d="M10.4371 3.71629L10.1053 2.96684" stroke="#F1C40F" stroke-miterlimit="10" stroke-linecap="round"/>
<path d="M17.1415 2.81815L17.1903 1.99999" stroke="#F1C40F" stroke-miterlimit="10" stroke-linecap="round"/>
<path d="M23.7523 5.74988L24.2965 5.13697" stroke="#F1C40F" stroke-miterlimit="10" stroke-linecap="round"/>
<path d="M27 11.4463L27.7086 11.0344" stroke="#F1C40F" stroke-miterlimit="10" stroke-linecap="round"/>
<rect x="12.5" y="23.5344" width="6" height="4" rx="0.5" fill="#F1C40F" stroke="#3BB77E"/>
<path d="M13 25.5344H18" stroke="#3BB77E"/>
</svg>
