<svg width="30" height="30" viewBox="0 0 30 30" fill="none" xmlns="http://www.w3.org/2000/svg">
<mask id="path-1-inside-1_2_146" fill="white">
<path fill-rule="evenodd" clip-rule="evenodd" d="M5.15384 4C4.04927 4 3.15384 4.89543 3.15384 6V20.3333C3.15384 21.4379 4.04927 22.3333 5.15384 22.3333H14.5169L12.8468 25.2516C12.656 25.585 12.8967 26 13.2807 26H19.95C20.3341 26 20.5748 25.585 20.384 25.2516L18.7138 22.3333H27C28.1046 22.3333 29 21.4379 29 20.3333V6C29 4.89543 28.1046 4 27 4H5.15384Z"/>
</mask>
<path d="M14.5169 22.3333L15.3849 22.83L16.2414 21.3333H14.5169V22.3333ZM12.8468 25.2516L13.7147 25.7484L13.7147 25.7484L12.8468 25.2516ZM20.384 25.2516L19.5161 25.7484L19.5161 25.7484L20.384 25.2516ZM18.7138 22.3333V21.3333H16.9893L17.8459 22.83L18.7138 22.3333ZM4.15384 6C4.15384 5.44772 4.60156 5 5.15384 5V3C3.49698 3 2.15384 4.34315 2.15384 6H4.15384ZM4.15384 20.3333V6H2.15384V20.3333H4.15384ZM5.15384 21.3333C4.60155 21.3333 4.15384 20.8856 4.15384 20.3333H2.15384C2.15384 21.9902 3.49699 23.3333 5.15384 23.3333V21.3333ZM14.5169 21.3333H5.15384V23.3333H14.5169V21.3333ZM13.7147 25.7484L15.3849 22.83L13.649 21.8366L11.9789 24.7549L13.7147 25.7484ZM13.2807 25C13.6648 25 13.9055 25.415 13.7147 25.7484L11.9789 24.7549C11.4066 25.7549 12.1286 27 13.2807 27V25ZM19.95 25H13.2807V27H19.95V25ZM19.5161 25.7484C19.3253 25.415 19.566 25 19.95 25V27C21.1022 27 21.8242 25.7549 21.2519 24.7549L19.5161 25.7484ZM17.8459 22.83L19.5161 25.7484L21.2519 24.7549L19.5817 21.8366L17.8459 22.83ZM27 21.3333H18.7138V23.3333H27V21.3333ZM28 20.3333C28 20.8856 27.5523 21.3333 27 21.3333V23.3333C28.6568 23.3333 30 21.9902 30 20.3333H28ZM28 6V20.3333H30V6H28ZM27 5C27.5523 5 28 5.44772 28 6H30C30 4.34314 28.6568 3 27 3V5ZM5.15384 5H27V3H5.15384V5Z" fill="#3BB77E" mask="url(#path-1-inside-1_2_146)"/>
<rect x="5.25" y="6.25" width="21.5" height="13.5" rx="0.75" stroke="#3BB77E" stroke-width="0.5"/>
<path d="M1.5 11.1111C1.5 10.835 1.72386 10.6111 2 10.6111H8.61538C8.89153 10.6111 9.11539 10.835 9.11539 11.1111V25C9.11539 25.2761 8.89153 25.5 8.61539 25.5H2C1.72386 25.5 1.5 25.2761 1.5 25V11.1111Z" fill="#F1C40F" stroke="#3BB77E"/>
<path d="M2.07693 15.6111H8.53847" stroke="#3BB77E"/>
<path d="M2.07693 20.5H8.53847" stroke="#3BB77E"/>
<ellipse cx="6.92307" cy="11.9444" rx="0.538462" ry="0.611111" fill="#3BB77E"/>
<ellipse cx="3.6923" cy="11.9444" rx="0.538462" ry="0.611111" fill="#3BB77E"/>
<path d="M15.875 14.9084V14.8409C15.8797 14.4006 15.9235 14.0502 16.0064 13.7898C16.0916 13.5294 16.2124 13.3187 16.3686 13.1577C16.5249 12.9967 16.7131 12.8499 16.9332 12.7173C17.0753 12.6274 17.2031 12.5268 17.3168 12.4155C17.4304 12.3042 17.5204 12.1764 17.5866 12.032C17.6529 11.8875 17.6861 11.7277 17.6861 11.5526C17.6861 11.3419 17.6364 11.1596 17.5369 11.0057C17.4375 10.8518 17.3049 10.7334 17.1392 10.6506C16.9759 10.5653 16.7936 10.5227 16.5923 10.5227C16.41 10.5227 16.236 10.5606 16.0703 10.6364C15.9046 10.7121 15.7673 10.8305 15.6584 10.9915C15.5495 11.1501 15.4867 11.3549 15.4702 11.6058H14.3906C14.4072 11.1797 14.5149 10.8198 14.7138 10.5263C14.9126 10.2304 15.1754 10.0066 15.5021 9.85511C15.8312 9.7036 16.1946 9.62784 16.5923 9.62784C17.0279 9.62784 17.4091 9.70952 17.7358 9.87287C18.0625 10.0339 18.3158 10.2599 18.4957 10.5511C18.678 10.84 18.7692 11.1773 18.7692 11.5632C18.7692 11.8284 18.7277 12.0675 18.6449 12.2805C18.562 12.4912 18.4437 12.6795 18.2898 12.8452C18.1383 13.0109 17.956 13.1577 17.7429 13.2855C17.5417 13.411 17.3783 13.5412 17.2528 13.6761C17.1297 13.8111 17.0398 13.9709 16.983 14.1555C16.9261 14.3402 16.8954 14.5687 16.8906 14.8409V14.9084H15.875ZM16.4112 17.0675C16.2171 17.0675 16.0502 16.9988 15.9105 16.8615C15.7708 16.7218 15.701 16.5537 15.701 16.3572C15.701 16.1631 15.7708 15.9974 15.9105 15.8601C16.0502 15.7204 16.2171 15.6506 16.4112 15.6506C16.603 15.6506 16.7687 15.7204 16.9084 15.8601C17.0504 15.9974 17.1214 16.1631 17.1214 16.3572C17.1214 16.4875 17.0883 16.607 17.022 16.7159C16.9581 16.8224 16.8729 16.9077 16.7663 16.9716C16.6598 17.0355 16.5414 17.0675 16.4112 17.0675Z" fill="#F1C40F"/>
</svg>
