<svg width="30" height="30" viewBox="0 0 30 30" fill="none" xmlns="http://www.w3.org/2000/svg">
<path d="M18.2996 7.95609V12.1895" stroke="#3BB77E" stroke-width="1.25" stroke-miterlimit="10" stroke-linecap="round"/>
<path d="M7.97137 21.0266C8.87949 21.0266 9.75042 20.6659 10.3925 20.0237C11.0347 19.3816 11.3954 18.5107 11.3954 17.6026H18.6295C18.6295 18.5107 18.9903 19.3816 19.6324 20.0237C20.2745 20.6659 21.1454 21.0266 22.0535 21.0266" stroke="#F1C40F" stroke-width="1.25" stroke-linecap="round" stroke-linejoin="round"/>
<path d="M7.97138 14.7481V24.1082C7.97028 24.7441 8.21247 25.3563 8.64829 25.8193C9.0841 26.2823 9.68052 26.5611 10.3153 26.5985C11.8148 26.8729 13.3356 27.0145 14.8599 27.0218H15.1401C16.6645 27.0145 18.1852 26.8729 19.6847 26.5985V26.5985C20.3195 26.5611 20.9159 26.2823 21.3517 25.8193C21.7876 25.3563 22.0297 24.7441 22.0286 24.1082V14.7481" stroke="#3BB77E" stroke-width="1.25" stroke-miterlimit="10" stroke-linecap="round"/>
<path d="M11.6974 7.95609V12.1895" stroke="#3BB77E" stroke-width="1.25" stroke-miterlimit="10" stroke-linecap="round"/>
<path d="M7.97138 23.7378H4.70609C4.4981 23.737 4.29799 23.6582 4.14528 23.517C3.99256 23.3758 3.89833 23.1825 3.88119 22.9752L3.33334 15.8812L5.3442 9.10156C5.39699 8.91747 5.51406 8.75843 5.67415 8.65333L8.97368 6.95375L15 9.16694L21.0263 6.9662L24.3259 8.66577C24.4867 8.77005 24.6041 8.92942 24.6558 9.11401L26.6667 15.8936L26.1188 22.9876C26.1017 23.1949 26.0075 23.3882 25.8547 23.5294C25.702 23.6706 25.5019 23.7494 25.294 23.7503H22.0286" stroke="#3BB77E" stroke-width="1.25" stroke-miterlimit="10" stroke-linecap="round"/>
<path d="M9.15733 7.00357C9.15733 7.00357 8.48498 3.29626 14.9969 3.33361C21.5119 3.29626 20.8365 7.00357 20.8365 7.00357" stroke="#3BB77E" stroke-width="1.25" stroke-miterlimit="10" stroke-linecap="round"/>
</svg>
