<svg width="30" height="30" viewBox="0 0 30 30" fill="none" xmlns="http://www.w3.org/2000/svg">
<mask id="path-1-inside-1_2_150" fill="white">
<path fill-rule="evenodd" clip-rule="evenodd" d="M15.1871 27.8375L15.0486 28L4.1312 16.4273C1.37659 13.5073 1.28751 8.62505 3.89161 5.5701C6.49571 2.51515 10.8727 2.36709 13.6273 5.28706L14.8411 6.57368L15.8826 5.35179C18.4725 2.3136 22.7927 2.20477 25.5322 5.10873C28.2717 8.01268 28.3931 12.8297 25.8033 15.8679L15.4041 28.0675L15.1871 27.8375Z"/>
</mask>
<path d="M15.1871 27.8375L16.0964 26.9797L15.14 25.9659L14.2358 27.0266L15.1871 27.8375ZM15.0486 28L14.1393 28.8578L15.0957 29.8716L15.9999 28.8109L15.0486 28ZM4.1312 16.4273L5.04045 15.5695H5.04045L4.1312 16.4273ZM3.89161 5.5701L4.8429 6.381L3.89161 5.5701ZM13.6273 5.28706L12.7181 6.14482L13.6273 5.28706ZM14.8411 6.57368L13.9318 7.43144L14.8882 8.44525L15.7924 7.38457L14.8411 6.57368ZM15.8826 5.35179L14.9314 4.5409V4.5409L15.8826 5.35179ZM25.5322 5.10873L26.4415 4.25096V4.25096L25.5322 5.10873ZM25.8033 15.8679L24.852 15.057L25.8033 15.8679ZM15.4041 28.0675L14.4948 28.9253L15.4512 29.9391L16.3554 28.8784L15.4041 28.0675ZM14.2358 27.0266L14.0973 27.1891L15.9999 28.8109L16.1384 28.6484L14.2358 27.0266ZM15.9578 27.1422L5.04045 15.5695L3.22194 17.285L14.1393 28.8578L15.9578 27.1422ZM5.04045 15.5695C2.73018 13.1205 2.64635 8.95783 4.8429 6.381L2.94032 4.7592C-0.0713286 8.29226 0.0230058 13.8941 3.22195 17.285L5.04045 15.5695ZM4.8429 6.381C6.97304 3.88206 10.4832 3.77574 12.7181 6.14482L14.5366 4.42929C11.2623 0.958445 6.01838 1.14824 2.94032 4.7592L4.8429 6.381ZM12.7181 6.14482L13.9318 7.43144L15.7503 5.71591L14.5366 4.42929L12.7181 6.14482ZM15.7924 7.38457L16.8339 6.16269L14.9314 4.5409L13.8898 5.76278L15.7924 7.38457ZM16.8339 6.16269C18.9411 3.6907 22.394 3.60373 24.623 5.96649L26.4415 4.25096C23.1914 0.805823 18.0038 0.936491 14.9314 4.5409L16.8339 6.16269ZM24.623 5.96649C26.9247 8.40643 27.028 12.5043 24.852 15.057L26.7545 16.6788C29.7582 13.1552 29.6187 7.61893 26.4415 4.25096L24.623 5.96649ZM24.852 15.057L14.4528 27.2566L16.3554 28.8784L26.7545 16.6788L24.852 15.057ZM16.3134 27.2097L16.0964 26.9797L14.2779 28.6952L14.4948 28.9253L16.3134 27.2097Z" fill="#3BB77E" mask="url(#path-1-inside-1_2_150)"/>
<mask id="path-3-inside-2_2_150" fill="white">
<path fill-rule="evenodd" clip-rule="evenodd" d="M16.6347 10H13.3173V13.432L10 13.4814L10.0491 16.8143L13.3173 16.7657V20H16.6347V16.7164L20 16.6663L19.9509 13.3333L16.6347 13.3827V10Z"/>
</mask>
<path fill-rule="evenodd" clip-rule="evenodd" d="M16.6347 10H13.3173V13.432L10 13.4814L10.0491 16.8143L13.3173 16.7657V20H16.6347V16.7164L20 16.6663L19.9509 13.3333L16.6347 13.3827V10Z" fill="#F1C40F"/>
<path d="M13.3173 10V9.5H12.8173V10H13.3173ZM16.6347 10H17.1347V9.5H16.6347V10ZM13.3173 13.432L13.3248 13.932L13.8173 13.9246V13.432H13.3173ZM10 13.4814L9.99256 12.9814L9.49269 12.9889L9.50005 13.4887L10 13.4814ZM10.0491 16.8143L9.54917 16.8217L9.55654 17.3217L10.0566 17.3143L10.0491 16.8143ZM13.3173 16.7657H13.8173V16.2582L13.3099 16.2658L13.3173 16.7657ZM13.3173 20H12.8173V20.5H13.3173V20ZM16.6347 20V20.5H17.1347V20H16.6347ZM16.6347 16.7164L16.6272 16.2164L16.1347 16.2237V16.7164H16.6347ZM20 16.6663L20.0074 17.1662L20.5073 17.1588L20.4999 16.6589L20 16.6663ZM19.9509 13.3333L20.4508 13.326L20.4435 12.8259L19.9434 12.8334L19.9509 13.3333ZM16.6347 13.3827H16.1347V13.8902L16.6421 13.8826L16.6347 13.3827ZM13.3173 10.5H16.6347V9.5H13.3173V10.5ZM13.8173 13.432V10H12.8173V13.432H13.8173ZM10.0074 13.9813L13.3248 13.932L13.3099 12.9321L9.99256 12.9814L10.0074 13.9813ZM10.5491 16.807L10.4999 13.474L9.50005 13.4887L9.54917 16.8217L10.5491 16.807ZM13.3099 16.2658L10.0417 16.3144L10.0566 17.3143L13.3248 17.2657L13.3099 16.2658ZM13.8173 20V16.7657H12.8173V20H13.8173ZM16.6347 19.5H13.3173V20.5H16.6347V19.5ZM16.1347 16.7164V20H17.1347V16.7164H16.1347ZM19.9926 16.1663L16.6272 16.2164L16.6421 17.2163L20.0074 17.1662L19.9926 16.1663ZM19.4509 13.3407L19.5001 16.6737L20.4999 16.6589L20.4508 13.326L19.4509 13.3407ZM16.6421 13.8826L19.9583 13.8333L19.9434 12.8334L16.6272 12.8827L16.6421 13.8826ZM16.1347 10V13.3827H17.1347V10H16.1347Z" fill="#3BB77E" mask="url(#path-3-inside-2_2_150)"/>
</svg>
