<svg width="31" height="30" viewBox="0 0 31 30" fill="none" xmlns="http://www.w3.org/2000/svg">
<path d="M0.705963 19.2891H29.6785C29.4298 21.5391 27.5222 23.2891 25.206 23.2891H2.20596C1.37754 23.2891 0.705963 22.6175 0.705963 21.7891V19.2891Z" fill="#F1C40F" stroke="#3BB77E"/>
<rect x="16.0338" y="16.8264" width="1" height="4" rx="0.5" transform="rotate(-145.875 16.0338 16.8264)" fill="#F1C40F"/>
<rect x="13.6324" y="16.3257" width="1" height="5.75574" rx="0.5" transform="rotate(-145.875 13.6324 16.3257)" fill="#F1C40F"/>
<rect x="18.0338" y="17.2448" width="1" height="3.29744" rx="0.5" transform="rotate(-145.875 18.0338 17.2448)" fill="#F1C40F"/>
<rect x="20.0338" y="17.4231" width="1" height="2.30482" rx="0.5" transform="rotate(-145.875 20.0338 17.4231)" fill="#F1C40F"/>
<path fill-rule="evenodd" clip-rule="evenodd" d="M30.2059 18.6192C30.2059 18.7319 30.1897 18.8439 30.1576 18.952C30.0103 19.4485 29.554 19.7891 29.036 19.7891H1.07133C0.593393 19.7891 0.205947 19.4016 0.205947 18.9237V17.1367C0.205947 16.9059 0.236054 16.6762 0.295506 16.4532L1.45414 12.1084C1.26685 12.0167 1.01829 11.8779 0.781498 11.6891C0.540537 11.497 0.273536 11.2229 0.121466 10.8565C-0.0396163 10.4684 -0.051273 10.0235 0.151932 9.56415C0.345855 9.10078 0.677 8.80326 1.06963 8.65341C1.44031 8.51195 1.82298 8.51746 2.12816 8.56045C2.43887 8.60422 2.71927 8.69407 2.91585 8.76879C3.01586 8.8068 3.09835 8.84251 3.15723 8.86941C3.18676 8.8829 3.21058 8.89428 3.22796 8.90277L3.24917 8.91328L3.25602 8.91676L3.25848 8.91802L3.25946 8.91852L3.2599 8.91874C3.26003 8.91881 3.26015 8.91888 3.17724 9.07935C3.17727 9.07934 3.1773 9.07933 3.17733 9.07931L3.26029 8.91895C3.30496 8.94206 3.34568 8.96981 3.38215 9.00131C3.43546 8.98381 3.48964 8.96816 3.5446 8.95442C3.97653 8.84644 4.43029 8.86387 4.85267 9.00466L5.70595 9.28908L8.04305 10.1776C9.45479 10.7143 10.9668 9.67148 10.9668 8.16116C10.9668 6.373 13.0174 5.36122 14.4365 6.4492L16.1842 7.78909L20.3983 10.7891L27.0329 14.2891L28.7166 15.2619C29.307 15.603 29.7625 16.1362 30.0073 16.7726C30.1386 17.114 30.2059 17.4767 30.2059 17.8425V18.6192ZM2.21563 9.85337C2.13152 9.83036 2.04284 9.81078 1.95381 9.79823C1.76103 9.77108 1.61382 9.78367 1.51532 9.82126C1.44118 9.84956 1.36548 9.90035 1.30371 10.0499L1.30021 10.0584L1.29645 10.0668C1.23041 10.2142 1.24552 10.304 1.27596 10.3773C1.31639 10.4747 1.40848 10.5903 1.56075 10.7117C1.63247 10.7689 1.70924 10.8208 1.78524 10.8667L1.85041 10.6223C1.92537 10.3412 2.05047 10.0816 2.21563 9.85337ZM4.45738 10.1905L5.28602 10.4667L7.59886 11.346C9.82864 12.1937 12.2168 10.5466 12.2168 8.16116C12.2168 7.40916 13.0792 6.98366 13.676 7.4412L15.4237 8.78109L15.4412 8.79456L15.4593 8.8074L19.6733 11.8074L19.7413 11.8558L19.815 11.8947L26.4283 15.3834L28.0913 16.3443C28.434 16.5423 28.6985 16.8519 28.8406 17.2213C28.9169 17.4195 28.9559 17.6301 28.9559 17.8425V18.5391H1.45595V17.1367C1.45595 17.0147 1.47187 16.8932 1.5033 16.7753L3.0582 10.9444C3.16045 10.561 3.4628 10.2633 3.84777 10.1671C4.04906 10.1168 4.26054 10.1249 4.45738 10.1905Z" fill="#3BB77E"/>
</svg>
