<svg width="30" height="30" viewBox="0 0 30 30" fill="none" xmlns="http://www.w3.org/2000/svg">
<path fill-rule="evenodd" clip-rule="evenodd" d="M20.1667 21.8407C23.6241 20.304 26.0001 17.113 26.0001 13.4256C26.0001 8.23896 21.2991 4.03433 15.5001 4.03433C9.70107 4.03433 5.00006 8.23896 5.00006 13.4256C5.00006 17.113 7.37605 20.304 10.8334 21.8407V22.8604C10.8334 23.4127 11.2811 23.8604 11.8334 23.8604H19.1667C19.719 23.8604 20.1667 23.4127 20.1667 22.8604V21.8407Z" fill="#FFD7DC"/>
<path d="M19.5287 8.53947C19.5287 8.53947 20.479 8.35099 22.0287 10.5395C23.604 12.7112 23.0287 14.5395 23.0287 14.5395" stroke="#CE4E64" stroke-width="1.25" stroke-miterlimit="10" stroke-linecap="round"/>
<path d="M3 11.0343H3.81961" stroke="#FFD7DC" stroke-miterlimit="10" stroke-linecap="round"/>
<path d="M5.6167 6.56192L5.07435 5.94741" stroke="#FFD7DC" stroke-miterlimit="10" stroke-linecap="round"/>
<path d="M10.4371 3.71629L10.1053 2.96684" stroke="#FFD7DC" stroke-miterlimit="10" stroke-linecap="round"/>
<path d="M17.1415 2.81815L17.1903 1.99999" stroke="#FFD7DC" stroke-miterlimit="10" stroke-linecap="round"/>
<path d="M23.7523 5.74988L24.2965 5.13697" stroke="#FFD7DC" stroke-miterlimit="10" stroke-linecap="round"/>
<path d="M27 11.4463L27.7086 11.0344" stroke="#FFD7DC" stroke-miterlimit="10" stroke-linecap="round"/>
<rect x="12.5" y="24.5" width="6" height="4" rx="0.5" fill="#FFD7DC" stroke="#CE4E64"/>
<path d="M13 26.9453H18" stroke="#CE4E64"/>
</svg>
