<svg width="30" height="30" viewBox="0 0 30 30" fill="none" xmlns="http://www.w3.org/2000/svg">
<path d="M20.1463 18.8382L24.4482 17.9947" stroke="#F1C40F" stroke-miterlimit="10" stroke-linecap="round"/>
<path d="M21.5306 21.8882L25.8559 20.9797" stroke="#F1C40F" stroke-miterlimit="10" stroke-linecap="round"/>
<path d="M4.88795 15.1687C4.88795 15.1687 7.36783 15.8379 7.33828 19.6541C7.36783 23.4722 4.88795 23.9309 4.88795 23.9309" stroke="#F1C40F" stroke-miterlimit="10" stroke-linecap="round"/>
<path d="M12.8209 23.902C12.8209 23.902 10.341 23.2328 10.3706 19.4166C10.341 15.5985 12.8209 15.1398 12.8209 15.1398" stroke="#F1C40F" stroke-miterlimit="10" stroke-linecap="round"/>
<path d="M15.4504 19.5197C15.4504 23.2968 12.5302 26.3196 8.97521 26.3196C5.42025 26.3196 2.5 23.2968 2.5 19.5197C2.5 15.7425 5.42025 12.7198 8.97521 12.7198C12.5302 12.7198 15.4504 15.7425 15.4504 19.5197Z" stroke="#3BB77E"/>
<path d="M24.4931 4.57173L25.8881 22.8214" stroke="#3BB77E" stroke-width="1.25" stroke-miterlimit="10" stroke-linecap="round"/>
<path d="M16.8203 6.76172L21.5305 23.8996" stroke="#3BB77E" stroke-width="1.25" stroke-miterlimit="10" stroke-linecap="round"/>
<path d="M16.8204 6.7617C16.8204 6.7617 15.6787 3.6849 20.0667 2.8105C24.447 1.88333 24.4797 4.57451 24.4797 4.57451" stroke="#3BB77E" stroke-width="1.25" stroke-miterlimit="10" stroke-linecap="round"/>
<path d="M20.5014 26.2958L20.4938 26.2558L20.4817 26.2226L20.48 26.2171C20.4774 26.2086 20.4728 26.1921 20.4675 26.1687C20.4568 26.1217 20.4438 26.0483 20.439 25.9555C20.4293 25.7705 20.4518 25.5132 20.5858 25.2297C20.8446 24.6822 21.6038 23.8738 23.858 23.4046C25.8915 22.9813 26.9021 23.3644 27.4015 23.7595C27.9081 24.1603 28.0031 24.6616 28.016 24.7298L28.0163 24.7315C28.076 25.0458 28.159 25.5217 27.8473 26.0226C27.5317 26.5297 26.7249 27.1928 24.6597 27.6227C22.5945 28.0525 21.6067 27.763 21.1297 27.4209C20.6585 27.083 20.5611 26.61 20.5014 26.2958Z" stroke="#3BB77E"/>
</svg>
