<svg width="30" height="30" viewBox="0 0 30 30" fill="none" xmlns="http://www.w3.org/2000/svg">
<path d="M3 10.6923L5.49997 28" stroke="#3BB77E" stroke-width="1.25" stroke-miterlimit="10" stroke-linecap="round"/>
<path d="M8.83322 5.56415V3.00005" stroke="#F1C40F" stroke-miterlimit="10" stroke-linecap="round"/>
<path d="M4.7439 6.85164C4.7439 6.85164 6.27611 6.90903 5.7543 8.72061C5.26207 10.538 3.83478 10.1051 3.83478 10.1051" stroke="#F1C40F" stroke-width="1.25" stroke-miterlimit="10" stroke-linecap="round"/>
<path d="M27.0423 10.1053C27.0423 10.1053 25.6147 10.5372 25.1228 8.72071C24.6007 6.90825 26.1332 6.85175 26.1332 6.85175" stroke="#F1C40F" stroke-width="1.25" stroke-miterlimit="10" stroke-linecap="round"/>
<path d="M10.4999 5.56415V3.00005" stroke="#F1C40F" stroke-miterlimit="10" stroke-linecap="round"/>
<path d="M20.4999 5.56415V3.00005" stroke="#F1C40F" stroke-miterlimit="10" stroke-linecap="round"/>
<path d="M22.1666 5.56415V3.00005" stroke="#F1C40F" stroke-miterlimit="10" stroke-linecap="round"/>
<path d="M4.66245 5.56415L2.99999 10.6932" stroke="#3BB77E" stroke-width="1.25" stroke-miterlimit="10" stroke-linecap="round"/>
<path d="M4.66663 5.56413L26.3333 5.56413" stroke="#3BB77E" stroke-width="1.25" stroke-miterlimit="10" stroke-linecap="round"/>
<path d="M4.66663 3.00006L26.3333 3.00006" stroke="#3BB77E" stroke-width="1.25" stroke-miterlimit="10" stroke-linecap="round"/>
<path d="M4.66663 5.56412V3.00002" stroke="#3BB77E" stroke-width="1.25" stroke-miterlimit="10" stroke-linecap="round"/>
<path d="M26.3333 5.56412V3.00002" stroke="#3BB77E" stroke-width="1.25" stroke-miterlimit="10" stroke-linecap="round"/>
<path d="M26.3333 5.56415L27.9958 10.6932" stroke="#3BB77E" stroke-width="1.25" stroke-miterlimit="10" stroke-linecap="round"/>
<path d="M15.5 19.6667L13.8334 28" stroke="#3BB77E" stroke-width="1.25" stroke-miterlimit="10" stroke-linecap="round"/>
<path d="M15.5 19.6667L18 28" stroke="#3BB77E" stroke-width="1.25" stroke-miterlimit="10" stroke-linecap="round"/>
<path d="M5.5 28H13.8333" stroke="#3BB77E" stroke-width="1.25" stroke-miterlimit="10" stroke-linecap="round"/>
<path d="M18 28H26.3334" stroke="#3BB77E" stroke-width="1.25" stroke-miterlimit="10" stroke-linecap="round"/>
<path d="M28 10.6923L26.3333 28" stroke="#3BB77E" stroke-width="1.25" stroke-miterlimit="10" stroke-linecap="round"/>
<path d="M15.5 20.3077L15.5 3" stroke="#3BB77E" stroke-width="1.25" stroke-miterlimit="10" stroke-linecap="round"/>
<path d="M7 26H8" stroke="#F1C40F" stroke-miterlimit="10" stroke-linecap="round"/>
<path d="M24 26H24.8196" stroke="#F1C40F" stroke-miterlimit="10" stroke-linecap="round"/>
<path d="M17.9999 6.84616V6.20514" stroke="#3BB77E" stroke-width="1.25" stroke-miterlimit="10" stroke-linecap="round"/>
<path d="M17.9999 8.76922V8.12819M17.9999 10.3718V10M16.3333 11.9743L17.1666 11.3333" stroke="#3BB77E" stroke-miterlimit="10" stroke-linecap="round"/>
<path d="M9.5 26H10.75M12.25 26H13" stroke="#F1C40F" stroke-miterlimit="10" stroke-linecap="round"/>
<path d="M19 26H19.8333M21.5 26H22.3333" stroke="#F1C40F" stroke-miterlimit="10" stroke-linecap="round"/>
</svg>
